<svg width="134" height="40" viewBox="0 0 134 40" fill="none" xmlns="http://www.w3.org/2000/svg">
<g clip-path="url(#clip0_1570_3024)">
<path d="M83.6833 1.03527C83.3778 1.45586 83.4287 1.7235 83.8996 2.14409L84.3068 2.53919H76.9642C69.7106 2.53919 69.0616 2.57743 68.8198 2.95978C68.7689 3.04899 68.718 6.50292 68.718 10.6451V18.1774L69.0107 18.4451C69.2907 18.7127 69.4306 18.7255 71.2377 18.7255C73.1083 18.7255 73.172 18.7382 73.3119 19.0059C73.4901 19.35 73.541 19.401 75.5898 20.8921C76.4679 21.5294 77.3205 22.1666 77.4986 22.2941C79.6365 23.8872 80.2855 24.1676 81.1127 23.8362C81.2527 23.7853 81.5708 23.798 81.8508 23.8745C82.8434 24.1421 85.4903 23.3774 88.2517 22.0264C90.3514 21.0068 91.115 20.1274 90.7587 19.1206L90.6187 18.7255H91.5731C92.413 18.7255 92.5657 18.6872 92.8329 18.4068C93.2274 18.0245 93.2274 17.8206 92.8584 17.4764C92.5911 17.2215 92.4257 17.1961 90.9623 17.1961H89.3461L87.7173 15.3735C86.8265 14.3666 85.4648 12.8372 84.7013 11.9833C83.1233 10.199 83.3142 10.2627 81.5708 10.9C80.4891 11.2951 78.7457 11.4608 78.2876 11.2186C77.7023 10.9127 77.9695 10.6961 80.4891 9.47252C81.8508 8.80978 83.0088 8.27448 83.0343 8.27448C83.0724 8.27448 83.7723 8.59311 84.5995 8.98821C85.4139 9.38331 86.5847 9.9186 87.1828 10.199L88.2899 10.6961H91.1023H93.9146V18.7255V26.7549H86.8646H79.8147L80.2474 26.3215C80.4891 26.0794 80.68 25.7735 80.68 25.6461C80.68 25.3147 80.2219 24.8431 79.9165 24.8431C79.6493 24.8431 77.3332 26.8696 77.1042 27.2902C76.9514 27.5833 77.1932 28.0294 77.8041 28.5264C78.0204 28.7049 78.4785 29.1255 78.8348 29.4696C79.5856 30.1833 79.9292 30.298 80.3619 30.0176C80.8455 29.699 80.7946 29.1764 80.2346 28.6794L79.7765 28.2843H87.3609C94.7672 28.2843 94.9326 28.2843 95.1872 28.0294C95.4417 27.7745 95.4417 27.6088 95.4417 18.6872C95.4417 9.59997 95.4417 9.58723 95.1744 9.34507C94.9326 9.12841 94.6145 9.10292 91.5095 9.03919C89.3843 9.00095 88.0099 8.92448 87.8063 8.82252C87.6282 8.74605 86.572 8.24899 85.4648 7.7137C84.345 7.17841 83.3142 6.70684 83.1742 6.6686C82.9961 6.63037 82.0544 7.02546 80.4128 7.81566L77.9059 9.03919L74.6354 9.06468C71.3777 9.10292 71.3649 9.10292 71.1231 9.4088C70.805 9.8039 70.8177 10.0078 71.1995 10.3774C71.5049 10.6961 71.5304 10.6961 73.9228 10.6961H76.3279L76.417 11.0912C76.5061 11.499 77.2314 12.3912 77.6514 12.6206C78.4785 13.0666 80.2601 12.9774 81.8762 12.4166L82.7797 12.098L83.1106 12.4549C83.2888 12.6461 84.205 13.6529 85.134 14.7108C86.0629 15.7559 87.2337 17.0813 87.73 17.6294C88.2263 18.1774 88.7989 18.8657 89.0025 19.1461C89.3716 19.6431 89.3716 19.6559 89.1298 19.8343C88.239 20.5225 84.1541 22.1412 82.7543 22.3578L82.2198 22.447L82.2962 21.5676C82.4234 19.949 81.8508 18.6362 80.3873 17.247C79.0384 15.947 77.8295 15.399 76.3024 15.399C75.1826 15.399 74.2027 15.8578 73.6174 16.648L73.2356 17.1833H71.7467L70.2451 17.1961V10.6961V4.19605L77.0278 4.18331C80.7437 4.18331 83.9378 4.15782 84.1032 4.11958C84.3832 4.0686 84.3704 4.10684 83.9505 4.51468C83.4287 5.01174 83.3778 5.26664 83.6833 5.69997C84.0523 6.22252 84.4595 6.06958 85.7702 4.89703C86.432 4.29801 87.0174 3.72448 87.081 3.60978C87.2719 3.27841 87.0428 2.97252 85.7702 1.83821C84.4595 0.665661 84.0396 0.512719 83.6833 1.03527ZM78.0204 17.349C79.3693 17.9735 80.4128 19.1715 80.6928 20.4461C80.8582 21.2108 80.7564 22.2813 80.4891 22.3706C80.3873 22.4088 79.7256 22.0264 79.0257 21.5039C78.3131 20.9941 77.575 20.4588 77.3714 20.3186C75.1953 18.7764 74.5718 18.2794 74.5718 18.0882C74.5718 17.7951 75.0426 17.2088 75.3862 17.0559C75.8825 16.8392 77.2569 16.9921 78.0204 17.349Z" fill="#EEEEEE"/>
<path d="M16.3141 3.60974C14.8761 3.89013 13.6545 4.29797 12.3947 4.92248L11.2366 5.49601L10.8167 5.27935C10.1168 4.92248 8.64063 4.45091 7.94073 4.37444C6.56637 4.20876 5.72648 4.96072 5.72648 6.36268C5.72648 7.02543 6.15915 8.52935 6.61727 9.40876L6.85905 9.89307L6.2355 11.1548C5.23018 13.1686 4.9375 14.4176 4.87387 17.0048C4.83569 18.6107 4.78479 19.1588 4.67026 19.1333C4.58118 19.1078 4.08489 18.8911 3.57586 18.649C2.58327 18.1901 1.65431 17.3617 1.65431 16.9539C1.65431 16.8264 1.57795 16.648 1.48887 16.5715C1.05621 16.2274 1.01803 17.0941 1.43797 17.7186C1.81974 18.2921 2.90141 19.0186 4.05943 19.4519C4.56846 19.6431 5.01385 19.8597 5.02658 19.9362C5.05203 19.9999 5.19201 20.548 5.35744 21.147C5.52287 21.7333 5.91736 22.7529 6.24823 23.4156L6.84633 24.6137L6.49001 25.4039C5.43379 27.7362 5.49742 29.4186 6.66817 29.9539C6.96086 30.0813 7.25355 30.196 7.34263 30.196C7.41898 30.196 7.66076 30.3744 7.86437 30.5784C8.39885 31.1009 9.03512 31.1009 9.55687 30.5911C9.76048 30.3872 9.92591 30.0941 9.92591 29.9411C9.92591 29.7372 10.0913 29.597 10.6131 29.3548L11.3003 29.0362L12.1147 29.4823C13.1837 30.0813 15.347 30.7823 16.6577 30.9735C17.3195 31.0627 18.3375 31.0882 19.3301 31.0499C21.5316 30.948 23.1096 30.5146 25.082 29.4823L25.9219 29.0362L26.7364 29.4058C27.6653 29.8264 29.027 30.196 29.6251 30.196C30.2359 30.196 30.8467 29.8901 31.1776 29.4441C31.6993 28.7048 31.5212 27.1499 30.7067 25.3146L30.3759 24.5754L30.8849 23.5941C31.3685 22.6764 31.9538 21.0705 32.132 20.1784C32.1956 19.847 32.2974 19.7578 32.7428 19.6176C34.6007 19.0695 36.1405 17.7568 36.1405 16.7244C36.1405 15.7813 34.7789 14.7107 32.6283 13.946C32.0047 13.7293 31.9666 13.6911 31.7629 13.0029C31.6357 12.6078 31.2794 11.7539 30.9612 11.0911L30.3886 9.90582L30.7067 9.17935C31.5721 7.20386 31.6993 6.01856 31.1394 5.06268C30.9485 4.73131 30.7958 4.37444 30.7958 4.25974C30.7958 3.89013 30.1595 3.43131 29.6505 3.43131C29.1033 3.43131 28.5052 3.83915 28.5052 4.20876C28.5052 4.34895 28.4034 4.48915 28.2889 4.54013C28.1616 4.57836 27.5762 4.80778 26.9909 5.03719L25.9346 5.45778L24.6366 4.83327C22.766 3.91562 21.2262 3.54601 19.0247 3.48229C17.8412 3.4568 16.925 3.49503 16.3141 3.60974ZM18.3248 7.33131V10.7342L16.8359 10.645C15.3979 10.5558 13.4763 10.3392 13.3873 10.2499C13.3109 10.1735 14.2399 7.94307 14.7234 7.05091C15.3597 5.89111 16.785 4.43817 17.5612 4.15778C17.8794 4.05582 18.1721 3.95386 18.2357 3.95386C18.2866 3.94111 18.3248 5.47052 18.3248 7.33131ZM20.0682 4.3617C20.9208 4.80778 21.7734 5.75092 22.5369 7.12739C22.9696 7.8666 23.7968 9.84209 23.7968 10.0842C23.7968 10.3264 22.626 10.5176 20.3863 10.645L18.8338 10.7342V7.42052C18.8338 5.59797 18.872 4.08131 18.9101 4.04307C18.9992 3.94111 19.5591 4.1068 20.0682 4.3617ZM30.0832 4.14503C30.4777 4.52738 30.1723 5.34307 29.6378 5.34307C29.1288 5.34307 28.7979 4.46366 29.1669 4.09405C29.3833 3.87738 29.8541 3.90287 30.0832 4.14503ZM15.7033 4.85876C14.6216 5.98032 13.8581 7.28033 13.1709 9.19209C12.8655 10.0588 12.7892 10.1735 12.5474 10.1225C12.4074 10.0842 11.7711 9.94405 11.1348 9.80386C9.58232 9.44699 8.27159 9.0519 8.27159 8.93719C8.27159 8.73327 10.2695 6.85974 11.0076 6.34994C12.0256 5.64895 13.2346 5.04993 14.3799 4.66758C16.365 4.00484 16.505 4.03032 15.7033 4.85876ZM22.3842 4.51464C23.8604 4.98621 24.7512 5.4068 25.9601 6.20974C27.029 6.92346 28.887 8.61856 28.887 8.88621C28.887 9.03915 28.1362 9.3068 26.4055 9.72739C24.3312 10.2499 24.4712 10.2754 24.064 9.1666C23.3768 7.30582 22.2315 5.4068 21.3407 4.64209C20.9081 4.25974 20.8699 4.19601 21.0989 4.19601C21.2389 4.19601 21.8243 4.33621 22.3842 4.51464ZM8.46247 5.02444C9.04785 5.11366 10.6894 5.72543 10.6894 5.85288C10.6894 5.89111 10.4095 6.13327 10.0786 6.38817C9.42961 6.88523 8.16979 8.17248 7.60986 8.9117C7.3808 9.19209 7.21537 9.3068 7.13902 9.23033C7.07539 9.15386 6.87178 8.66954 6.6809 8.14699C6.2355 6.93621 6.1846 5.75091 6.54092 5.35582C6.79543 5.07542 7.44443 4.83327 7.76257 4.89699C7.86437 4.92248 8.18251 4.97346 8.46247 5.02444ZM28.5943 5.27935C28.6834 5.53425 29.2942 5.85288 29.6887 5.85288C29.8541 5.85288 30.1595 5.72542 30.3504 5.58523C30.7831 5.22837 30.9231 5.39405 30.9231 6.29895C30.9231 7.05092 30.7576 7.68817 30.325 8.68229L30.0068 9.40876L29.2306 8.44013C28.8106 7.91758 28.0471 7.12739 27.5253 6.7068C27.0163 6.27347 26.5964 5.87837 26.5964 5.84013C26.5964 5.73817 28.098 5.10091 28.3525 5.08817C28.4416 5.08817 28.5434 5.17739 28.5943 5.27935ZM9.64595 9.98229C10.2568 10.1607 11.0967 10.3646 11.5293 10.4411C11.962 10.5303 12.3692 10.6323 12.4583 10.6833C12.5601 10.7597 12.5346 11.0656 12.3438 11.9195C11.9747 13.5254 12.0384 13.4235 11.453 13.1176C11.173 12.9774 10.8803 12.8882 10.8167 12.9264C10.5495 13.0921 10.7149 13.3342 11.2748 13.6019L11.8602 13.895L11.7711 14.8127C11.7202 15.3225 11.6566 15.7558 11.6311 15.7813C11.4784 15.947 9.30236 13.0411 8.23341 11.2695C7.52078 10.0842 7.50806 10.0205 7.68621 9.72739C7.86437 9.47248 7.94073 9.44699 8.22069 9.54895C8.39885 9.62542 9.04785 9.8166 9.64595 9.98229ZM29.6505 9.99503C29.6505 10.4284 26.6218 14.8891 25.8583 15.5774C25.6165 15.7941 25.6038 15.7941 25.5402 15.3862C25.2856 13.8568 25.2475 13.9842 25.9601 13.6019C26.3037 13.398 26.5964 13.1813 26.5964 13.1176C26.5964 12.8499 26.2273 12.8499 25.7438 13.1048L25.2347 13.3597L24.9166 12.0597C24.7384 11.346 24.6112 10.747 24.6239 10.7215C24.6494 10.696 25.2856 10.5431 26.0365 10.3646C26.8 10.199 27.8562 9.91856 28.3779 9.75287C29.2306 9.48523 29.3451 9.48523 29.4978 9.65091C29.5742 9.76562 29.6505 9.91856 29.6505 9.99503ZM9.03512 13.4235C9.49324 14.0735 10.2313 15.0803 10.6894 15.6793L11.5293 16.7499L11.4403 18.2793C11.3893 19.1205 11.3384 19.9872 11.3384 20.2039L11.3257 20.599L10.4731 20.4842C9.34054 20.3313 6.65545 19.796 6.04462 19.5921C5.43379 19.3882 5.37017 19.2097 5.35744 17.4382C5.33199 15.2333 5.79011 13.2068 6.74452 11.346L7.15174 10.5303L7.67349 11.3842C7.96618 11.8686 8.577 12.7735 9.03512 13.4235ZM31.2285 13.1431C31.5848 14.2009 31.6357 14.4048 31.8266 15.9215C31.9538 16.9666 31.8775 19.0441 31.6993 19.3372C31.5975 19.5156 29.4469 20.0509 27.8053 20.3058C27.1054 20.4205 26.38 20.5352 26.2019 20.5735L25.871 20.6244L25.7947 18.6362L25.731 16.6607L26.7236 15.399C27.5635 14.3411 28.9251 12.3784 29.8414 10.8999L30.0704 10.5176L30.4904 11.3715C30.7322 11.8303 31.063 12.6333 31.2285 13.1431ZM15.4615 11.0911C16.0214 11.1548 16.8995 11.2058 17.4085 11.2058H18.3248V13.0666V14.9401L17.2686 14.8637C15.5506 14.7235 12.3819 13.7931 12.5092 13.449C12.5346 13.3725 12.7001 12.748 12.8528 12.047L13.1582 10.798L13.7945 10.8872C14.1508 10.9254 14.9016 11.0274 15.4615 11.0911ZM24.2294 11.4352C24.5348 12.4931 24.713 13.5254 24.5985 13.6274C24.1658 14.048 20.6917 14.9019 19.4573 14.9019H18.8211L18.8592 13.0793L18.8974 11.2695L20.4245 11.1803C21.2644 11.1293 22.2951 11.0274 22.7151 10.9637C24.064 10.7725 24.0258 10.7597 24.2294 11.4352ZM25.0184 15.5901L25.1075 16.5588L24.3567 17.4127C23.9367 17.8842 23.0078 18.8911 22.2824 19.6431L20.959 21.0195H19.9027H18.8338V18.2921V15.5519L19.381 15.4882C19.6737 15.4499 20.2082 15.3862 20.5517 15.348C21.4171 15.246 23.1859 14.7872 24.0513 14.4558C24.8912 14.1244 24.8784 14.1244 25.0184 15.5901ZM13.3491 14.5195C14.2271 14.8637 15.8178 15.246 16.7341 15.348C17.154 15.3862 17.6885 15.4499 17.9176 15.4882L18.3248 15.5519V18.2793V21.0195H17.3322H16.3396L14.8634 19.5156C14.049 18.6999 13.0946 17.6931 12.7255 17.2725C12.1274 16.597 12.0638 16.4823 12.1274 16.0617C12.1783 15.8068 12.242 15.297 12.2929 14.9274C12.3947 14.1754 12.4328 14.1499 13.3491 14.5195ZM33.659 14.9784C34.7916 15.5264 35.4788 16.1254 35.5806 16.648C35.6442 16.9921 35.5806 17.1195 35.1479 17.6039C34.6898 18.1009 33.6336 18.7382 32.6919 19.095L32.3738 19.2097V17.6039C32.3865 16.7117 32.3356 15.6156 32.2847 15.1823C32.1829 14.3793 32.1829 14.3666 32.4756 14.4686C32.641 14.5195 33.1755 14.749 33.659 14.9784ZM14.3671 19.796L15.4615 20.9303L13.9345 20.8411C11.682 20.7137 11.8856 20.8921 11.9365 19.1333C11.962 18.3176 12.0002 17.5656 12.0256 17.4764C12.0638 17.3744 12.3183 17.5784 12.6746 17.9862C12.9928 18.3558 13.7563 19.1715 14.3671 19.796ZM25.3111 19.0313C25.4002 20.9048 25.6165 20.7137 23.3514 20.8411L21.8243 20.9303L22.7151 19.9872C23.2114 19.4646 23.9495 18.6617 24.3694 18.1901C24.7766 17.7186 25.1457 17.349 25.1711 17.3872C25.1966 17.4127 25.2602 18.1519 25.3111 19.0313ZM6.74452 20.3058C8.33522 20.7519 11.5421 21.2235 14.2271 21.4019L16.0469 21.5166L17.1031 22.5107C17.6885 23.0588 18.1466 23.5431 18.1212 23.5813C18.0957 23.6195 17.3449 24.2313 16.4541 24.9323C14.8252 26.1941 13.0818 27.4048 11.9238 28.0803L11.313 28.4372L10.5876 27.8764C8.19524 26.0411 6.33731 23.2117 5.67558 20.3441C5.59923 20.0382 5.62468 19.9872 5.81556 20.0509C5.94282 20.0891 6.36276 20.2039 6.74452 20.3058ZM31.3685 20.9813C30.6176 23.5686 29.0015 25.9774 26.8763 27.6725L25.9474 28.4117L25.4129 28.1441C24.0767 27.4558 21.7607 25.799 19.0883 23.5941C19.0501 23.5686 19.4955 23.097 20.0809 22.549L21.1371 21.5548L22.117 21.4784C25.7438 21.198 28.7088 20.7774 30.6049 20.2803C31.1012 20.1529 31.5084 20.0891 31.5339 20.1529C31.5593 20.2039 31.483 20.5862 31.3685 20.9813ZM18.3248 22.1666C18.3248 22.5107 18.2866 22.8039 18.2357 22.8039C18.1721 22.7911 17.8539 22.5107 17.4976 22.1666L16.8613 21.5293H17.5994H18.3248V22.1666ZM20.2336 21.5931C20.2336 21.6695 19.0883 22.7274 18.9483 22.7784C18.8211 22.8293 18.7956 21.746 18.9229 21.6186C19.012 21.5166 20.2336 21.4911 20.2336 21.5931ZM18.3248 27.3921V30.5784H17.8921C17.1795 30.5784 15.3852 30.2215 14.4435 29.8901C13.4127 29.5333 12.1274 28.947 12.0256 28.8068C12.0002 28.7431 12.471 28.3735 13.0946 27.9784C14.4817 27.099 16.7977 25.4166 17.5612 24.7284C17.8794 24.448 18.1721 24.2186 18.2357 24.2058C18.2866 24.2058 18.3248 25.6333 18.3248 27.3921ZM20.4118 25.3401C22.2061 26.7293 23.6313 27.7235 24.5985 28.2715C24.993 28.5009 25.3238 28.7176 25.3238 28.7431C25.3238 28.845 23.3259 29.7499 22.5878 29.9793C21.837 30.2215 19.8773 30.5784 19.2537 30.5784H18.8211L18.8338 27.3921C18.8465 25.6333 18.872 24.2058 18.8974 24.2058C18.9356 24.2058 19.6101 24.7156 20.4118 25.3401ZM7.60986 25.6333C8.24614 26.4235 9.65867 27.8382 10.1677 28.2205C10.4477 28.4372 10.6894 28.6411 10.6894 28.6921C10.6894 28.7303 10.4858 28.845 10.244 28.9215C9.84956 29.049 9.76048 29.0362 9.46779 28.8068C8.83151 28.3097 7.90255 28.5519 7.58441 29.2911C7.45716 29.6097 7.40625 29.6352 7.02449 29.5333C6.21005 29.3166 6.03189 28.0676 6.61727 26.5382C6.74452 26.2068 6.90996 25.7735 6.98631 25.5695C7.06266 25.3784 7.15174 25.2254 7.18992 25.2254C7.24082 25.2254 7.41898 25.4166 7.60986 25.6333ZM30.4649 26.1431C30.9231 27.3029 31.0503 28.6411 30.7576 29.0999C30.414 29.6225 29.7905 29.7372 28.7215 29.495C28.2125 29.3803 27.4999 29.1637 27.1308 28.998L26.4437 28.7048L27.4872 27.8509C28.0598 27.3793 28.8488 26.5891 29.2433 26.1048C29.6378 25.6205 29.9941 25.2254 30.0323 25.2254C30.0704 25.2254 30.2613 25.646 30.4649 26.1431ZM9.16238 29.3039C9.30236 29.4441 9.41689 29.6607 9.41689 29.7754C9.41689 30.0686 9.03512 30.4509 8.74244 30.4509C8.41157 30.4509 8.01708 30.0941 8.01708 29.7882C8.01708 29.5078 8.44975 29.049 8.71698 29.049C8.81879 29.049 9.0224 29.1637 9.16238 29.3039Z" fill="#C85652"/>
<path d="M41.8671 3.46956C41.8671 3.49505 41.409 5.54701 40.8491 8.0323C40.2764 10.5176 39.5129 13.9205 39.1311 15.6029C36.9423 25.3274 36.2551 28.3735 36.1915 28.5647C36.1279 28.7813 36.2679 28.7941 37.9604 28.7941C39.7674 28.7941 39.8056 28.7941 39.8692 28.5009C39.9074 28.348 40.1492 27.1117 40.4037 25.7607L40.8745 23.3137H43.3942H45.9011L46.3083 25.4421C46.5374 26.6274 46.7792 27.8509 46.8555 28.195L46.9828 28.7941H48.7644C50.3932 28.7941 50.5332 28.7813 50.4696 28.5647C50.4059 28.3735 49.1588 22.7147 45.8629 7.76466C45.4048 5.69995 44.9976 3.8774 44.9594 3.71171C44.8958 3.44407 44.8449 3.43132 43.3814 3.43132C42.5543 3.43132 41.8671 3.44407 41.8671 3.46956ZM44.2722 15.0549C44.7049 17.3235 45.0994 19.3245 45.1376 19.5156L45.2139 19.8725H43.3942C41.5871 19.8725 41.5871 19.8725 41.638 19.5794C42.8342 13.398 43.3305 10.9509 43.3942 10.9509C43.4323 10.9509 43.8268 12.799 44.2722 15.0549Z" fill="#EEEEEE"/>
<path d="M52.302 16.1127V28.7941H54.1472H55.9924V25.2509V21.7205L56.9723 19.7068C57.5068 18.6107 57.9776 17.7058 58.0285 17.7058C58.0667 17.7058 58.3848 18.5215 58.7539 19.5156C59.1102 20.5225 60.0137 22.995 60.7518 25.0343C61.4898 27.0607 62.1007 28.7431 62.1007 28.7558C62.1007 28.7813 62.9278 28.7941 63.9459 28.7941C65.3839 28.7941 65.7911 28.7558 65.7911 28.6284C65.7911 28.5392 65.562 27.8637 65.2693 27.1245C64.9766 26.398 64.5567 25.3147 64.3276 24.7156C64.0986 24.1166 63.3351 22.1156 62.6097 20.2549C61.8843 18.3941 61.019 16.1382 60.6754 15.2333L60.0519 13.5892L60.5227 12.6205C62.1898 9.16662 64.773 3.66073 64.773 3.55877C64.773 3.4823 64.0986 3.43132 63.0551 3.43132C61.388 3.43132 61.3244 3.44407 61.2226 3.71171C61.159 3.8774 60.8917 4.46367 60.6372 5.02446C59.7719 6.89799 56.3487 14.3284 56.1706 14.7107C56.0306 15.0294 56.0051 14.2137 55.9924 9.25583V3.43132H54.1472H52.302V16.1127Z" fill="#EEEEEE"/>
<path d="M100.303 13.9078L100.341 24.397L100.672 25.251C101.537 27.4814 103.382 28.7941 105.915 28.998C107.009 29.0872 108.333 28.8451 109.376 28.348C110.789 27.6725 111.998 26.0412 112.354 24.3588C112.443 23.9 112.494 20.4588 112.494 13.5637V3.43136H110.649H108.803V13.6784V23.9127L108.511 24.3461C107.684 25.5951 105.202 25.6333 104.299 24.4098C104.031 24.0657 104.031 23.9 103.968 13.7804L103.904 3.49509L102.084 3.45685L100.265 3.41862L100.303 13.9078Z" fill="#EEEEEE"/>
<path d="M116.057 16.1127V28.7941H117.838H119.62L119.633 21.045V13.3088L120.829 16.8137C121.478 18.7382 122.318 21.198 122.674 22.2558L123.336 24.2058H124.201H125.067L125.728 22.2558C126.085 21.198 126.924 18.7382 127.574 16.8137L128.77 13.3088V21.045L128.782 28.7941H130.564H132.346V16.1127V3.43132H130.64H128.948L127.408 7.80289C126.568 10.2117 125.512 13.2196 125.067 14.4941C124.634 15.7686 124.239 16.8137 124.201 16.8137C124.163 16.8137 123.31 14.4431 122.305 11.5499C121.3 8.66956 120.244 5.64897 119.964 4.85877L119.455 3.43132H117.762H116.057V16.1127Z" fill="#EEEEEE"/>
<path d="M36.1406 30.7059V31.0883H84.2432H132.346V30.7059V30.3236H84.2432H36.1406V30.7059Z" fill="#EEEEEE"/>
<path d="M6.42629 32.9617C6.00635 33.0764 5.59913 33.4078 5.3828 33.8029C5.12829 34.3127 5.10283 37.0147 5.35735 37.5372C5.65003 38.1235 6.29904 38.4803 7.08802 38.4803C8.18242 38.4803 9.03503 37.8558 9.03503 37.0656C9.03503 36.7343 8.99685 36.696 8.58963 36.696C8.22059 36.696 8.11879 36.7598 8.00426 37.0402C7.83883 37.4862 7.67339 37.5882 7.11347 37.5882C6.32449 37.5882 6.17178 37.2823 6.17178 35.6509C6.17178 34.3382 6.18451 34.2362 6.47719 34.0068C7.01167 33.5607 7.7243 33.7392 8.05516 34.3892C8.15697 34.6058 8.33512 34.7078 8.62781 34.7333C8.99685 34.7588 9.03503 34.7333 9.03503 34.4147C9.03503 33.8921 8.52601 33.2166 8.01698 33.0382C7.55886 32.8852 6.88441 32.847 6.42629 32.9617Z" fill="#EEEEEE"/>
<path d="M13.6546 33.1147C12.8528 33.4843 12.7001 33.8922 12.7001 35.6638C12.6874 37.2314 12.8019 37.652 13.3619 38.1618C13.7564 38.5187 15.0544 38.5696 15.6525 38.2638C16.3651 37.8941 16.5433 37.3843 16.5433 35.702C16.5433 33.9432 16.3905 33.5098 15.6016 33.1275C14.9398 32.8089 14.3417 32.8089 13.6546 33.1147ZM15.258 34.0069C15.5634 34.3128 15.7034 35.1794 15.6143 36.1863C15.5252 37.2314 15.2834 37.5883 14.6344 37.5883C13.7564 37.5883 13.54 37.0657 13.6418 35.2687C13.6927 34.3892 13.7436 34.1981 13.9981 33.9941C14.3672 33.701 14.9526 33.701 15.258 34.0069Z" fill="#EEEEEE"/>
<path d="M52.7602 33C51.8821 33.2676 51.6276 33.8794 51.6403 35.8039C51.6531 37.2568 51.7676 37.6774 52.3021 38.1617C52.5311 38.3656 52.7602 38.4166 53.6001 38.4166C54.6054 38.4166 54.6181 38.4166 55.0508 37.9451C55.3435 37.6137 55.4835 37.346 55.4835 37.0784C55.4835 36.7215 55.4453 36.696 55.0381 36.696C54.669 36.696 54.5672 36.7598 54.4527 37.0402C54.2873 37.4862 54.1218 37.5882 53.5619 37.5882C52.7729 37.5882 52.6202 37.2823 52.6202 35.6509C52.6202 34.3382 52.6329 34.2362 52.9256 34.0068C53.4474 33.5862 54.2364 33.7519 54.4654 34.3254C54.6436 34.8098 55.4835 34.8607 55.4835 34.3892C55.4835 33.3313 54.0582 32.6176 52.7602 33Z" fill="#EEEEEE"/>
<path d="M71.5684 33.0509C70.9576 33.3185 70.6267 33.8284 70.6267 34.5166C70.6267 34.8734 70.7158 35.2048 70.8558 35.3705C71.123 35.7019 71.7847 36.0587 72.1538 36.0587C72.2937 36.0587 72.6119 36.148 72.8537 36.2372C73.2354 36.4029 73.2991 36.4921 73.2991 36.8617C73.2991 37.3587 73.1336 37.5499 72.6119 37.6391C72.1156 37.7284 71.6575 37.5244 71.5175 37.1421C71.4157 36.8872 71.3139 36.8234 70.9448 36.8234C70.4104 36.8234 70.3595 37.0529 70.7539 37.6901C71.3393 38.6587 73.1845 38.7607 73.9862 37.8685C74.3171 37.4862 74.3935 36.5813 74.1389 36.0842C73.8844 35.5999 73.439 35.345 72.6119 35.2303C71.9501 35.1284 71.5175 34.8097 71.5175 34.4274C71.5175 34.0578 71.9374 33.7646 72.4592 33.7646C72.8537 33.7646 72.9682 33.8284 73.1464 34.147C73.3118 34.4529 73.4518 34.5293 73.7826 34.5293C74.2789 34.5293 74.3171 34.2872 73.9353 33.6627C73.5027 32.9489 72.4337 32.6813 71.5684 33.0509Z" fill="#EEEEEE"/>
<path d="M20.2336 35.7274V38.4803H20.7427H21.2517L21.2644 36.849V35.2303L21.7989 36.2754C22.2697 37.2313 22.3588 37.3333 22.6897 37.3333C23.0078 37.3333 23.0842 37.2441 23.5041 36.3137C23.7586 35.7529 24.0004 35.2941 24.0513 35.2941C24.0895 35.2941 24.1277 35.6 24.1277 35.9568C24.1404 36.3264 24.1531 37.0529 24.1658 37.55L24.1786 38.4803H24.624H25.0693V35.7402V33H24.5731H24.0895L23.415 34.4656C23.0333 35.2686 22.7024 35.9313 22.6642 35.9313C22.626 35.9186 22.2952 35.2813 21.9261 34.4911L21.2644 33.0637L20.7554 33.0254L20.2336 32.9872V35.7274Z" fill="#EEEEEE"/>
<path d="M28.7598 35.7274V38.4803H29.2688H29.7778L29.7905 36.849V35.2303L30.325 36.2754C30.7959 37.2186 30.8849 37.3333 31.2158 37.3333C31.5339 37.3333 31.6103 37.2441 32.0302 36.3009C32.6156 35.0137 32.7301 35.1539 32.6792 37.0784L32.6411 38.4803H33.1246H33.5955V35.7274V32.9872L33.0737 33.0254L32.5647 33.0637L31.9157 34.4911C31.5594 35.2813 31.2285 35.9313 31.1903 35.9313C31.1522 35.9186 30.8213 35.2813 30.4523 34.4911L29.7905 33.0637L29.2815 33.0254L28.7598 32.9872V35.7274Z" fill="#EEEEEE"/>
<path d="M37.4131 35.7402V38.4803H39.131H40.849V38.0343V37.5882H39.6401H38.4184L38.4566 36.849L38.4948 36.1225L39.4492 36.1098L40.4036 36.097L40.4418 35.6892L40.4799 35.2941H39.4619H38.4311V34.5549V33.8284H39.6019H40.7854L40.8235 33.4078L40.8617 33H39.1438H37.4131V35.7402Z" fill="#EEEEEE"/>
<path d="M44.4121 35.7402V38.4803H44.9211H45.4302V37.3333V36.1862H45.8501C46.2446 36.1862 46.27 36.2372 46.7536 37.3333L47.2626 38.4803H47.8098C48.1152 38.4803 48.357 38.4421 48.3443 38.3784C48.3443 38.3274 48.0898 37.8049 47.7971 37.2058L47.2372 36.1225L47.6826 35.7402C48.2298 35.2686 48.3698 34.5421 48.0516 33.8666C47.708 33.1529 47.3008 33 45.761 33H44.4121V35.7402ZM47.059 34.1215C47.3135 34.4529 47.2499 35.0009 46.9318 35.2176C46.7663 35.3323 46.3846 35.4215 46.041 35.4215H45.4302V34.6823C45.4302 34.2745 45.4556 33.9049 45.4811 33.8794C45.621 33.7392 46.9063 33.9303 47.059 34.1215Z" fill="#EEEEEE"/>
<path d="M59.1738 35.7402V38.4803H60.8918H62.6097V38.0343V37.5882H61.4008H60.1791L60.2173 36.849L60.2555 36.1225H61.2481H62.228V35.7019V35.2941H61.2099H60.1919V34.5931C60.1919 34.0196 60.23 33.8921 60.4209 33.8794C60.5355 33.8666 61.0699 33.8411 61.5917 33.8156L62.5461 33.7902L62.5843 33.3951L62.6225 33H60.9045H59.1738V35.7402Z" fill="#EEEEEE"/>
<path d="M77.8804 35.7402V38.4803H78.3894H78.8984V35.7402V33H78.3894H77.8804V35.7402Z" fill="#EEEEEE"/>
<path d="M82.7161 35.7402V38.4803H83.2251H83.7341L83.7468 36.849V35.2303L84.2813 36.2754C84.7522 37.2186 84.8412 37.3333 85.1721 37.3333C85.4902 37.3333 85.5666 37.2441 85.9865 36.3009C86.5719 35.0137 86.6864 35.1539 86.6355 37.0784L86.5974 38.4803H87.0809H87.5518V35.7274V32.9872L87.03 33.0254L86.521 33.0637L85.872 34.4911C85.5157 35.2813 85.1848 35.9313 85.1466 35.9313C85.1085 35.9313 84.9812 35.7402 84.8921 35.5107C84.7903 35.2941 84.4849 34.6313 84.2177 34.0451L83.7214 33H83.2251H82.7161V35.7402Z" fill="#EEEEEE"/>
<path d="M91.2422 35.7402V38.4803H91.7512H92.2602V37.397V36.3137H93.0365C93.4819 36.3137 93.9909 36.2245 94.2327 36.1098C95.0344 35.7274 95.3016 34.5421 94.7672 33.7519C94.3345 33.1147 94.0164 33 92.5529 33H91.2422V35.7402ZM93.8891 34.1215C94.0927 34.3892 94.0927 34.9245 93.8764 35.2176C93.7618 35.3705 93.4946 35.447 92.9856 35.4725L92.2602 35.5235V34.7333C92.2602 34.2872 92.2857 33.9049 92.3111 33.8794C92.4511 33.7392 93.7364 33.9303 93.8891 34.1215Z" fill="#EEEEEE"/>
<path d="M98.4956 35.7402V38.4803H100.214H101.932V38.0343V37.5882H100.723H99.5136V35.2941V33H99.0046H98.4956V35.7402Z" fill="#EEEEEE"/>
<path d="M105.367 35.7402V38.4803H105.876H106.385V35.7402V33H105.876H105.367V35.7402Z" fill="#EEEEEE"/>
<path d="M110.203 35.7402V38.4803H110.712H111.221V37.3333V36.1862H112.239H113.257V35.7402V35.2941H112.239H111.221V34.5931C111.221 34.0196 111.259 33.8921 111.45 33.8794C111.565 33.8666 111.73 33.8539 111.794 33.8284C111.87 33.8156 112.303 33.7902 112.786 33.7902L113.639 33.7647V33.3823V33H111.921H110.203V35.7402Z" fill="#EEEEEE"/>
<path d="M117.075 35.7402V38.4803H117.584H118.093V35.7402V33H117.584H117.075V35.7402Z" fill="#EEEEEE"/>
<path d="M121.911 35.7402V38.4803H123.629H125.347V38.0343V37.5882H124.138H122.916L122.954 36.849L122.992 36.1225L123.947 36.1098L124.901 36.097L124.939 35.6892L124.978 35.2941H123.959H122.929V34.5294V33.7647H124.138H125.347V33.3823V33H123.629H121.911V35.7402Z" fill="#EEEEEE"/>
<path d="M128.91 35.7529V38.5059L130.22 38.4549C132.371 38.3784 132.715 37.9961 132.74 35.6892C132.753 33.4078 132.371 33 130.22 33H128.91V35.7529ZM131.493 34.1343C131.646 34.2872 131.747 34.6313 131.798 35.2559C131.938 37.0019 131.633 37.5882 130.564 37.5882H129.928V35.7657C129.928 34.7588 129.953 33.9049 129.991 33.8666C130.131 33.7264 131.277 33.9304 131.493 34.1343Z" fill="#EEEEEE"/>
</g>
<defs>
<clipPath id="clip0_1570_3024">
<rect width="134" height="39" fill="white" transform="translate(0 0.5)"/>
</clipPath>
</defs>
</svg>
